<svg xmlns="http://www.w3.org/2000/svg" xmlns:xlink="http://www.w3.org/1999/xlink" width="500" zoomAndPan="magnify" viewBox="0 0 375 374.999991" height="500" preserveAspectRatio="xMidYMid meet" version="1.0"><defs><g/><clipPath id="87804ecf1b"><path d="M 36.335938 139 L 62 139 L 62 216.902344 L 36.335938 216.902344 Z M 36.335938 139 " clip-rule="nonzero"/></clipPath><clipPath id="b685eea0a9"><path d="M 161.539062 139.394531 L 186.335938 139.394531 L 186.335938 216.898438 L 161.539062 216.898438 Z M 161.539062 139.394531 " clip-rule="nonzero"/></clipPath><clipPath id="89d7f7c746"><path d="M 99 121.652344 L 124 121.652344 L 124 148 L 99 148 Z M 99 121.652344 " clip-rule="nonzero"/></clipPath></defs><rect x="-37.5" width="450" fill="#ffffff" y="-37.499999" height="449.999989" fill-opacity="1"/><rect x="-37.5" width="450" fill="#ffffff" y="-37.499999" height="449.999989" fill-opacity="1"/><rect x="-37.5" width="450" fill="#0d6efd" y="-37.499999" height="449.999989" fill-opacity="1"/><path fill="#ffffff" d="M 87.480469 165.085938 C 85.640625 165.085938 83.925781 165.433594 82.335938 166.128906 C 80.746094 166.824219 79.367188 167.761719 78.199219 168.941406 C 77.03125 170.121094 76.105469 171.507812 75.421875 173.097656 C 74.738281 174.6875 74.394531 176.378906 74.394531 178.167969 C 74.394531 179.957031 74.738281 181.648438 75.421875 183.238281 C 76.105469 184.828125 77.03125 186.214844 78.199219 187.394531 C 79.367188 188.574219 80.746094 189.511719 82.335938 190.207031 C 83.925781 190.902344 85.640625 191.25 87.480469 191.25 C 89.292969 191.25 90.996094 190.902344 92.585938 190.207031 C 94.175781 189.511719 95.5625 188.566406 96.742188 187.375 C 97.921875 186.183594 98.855469 184.796875 99.539062 183.21875 C 100.222656 181.640625 100.5625 179.957031 100.5625 178.167969 C 100.5625 176.378906 100.222656 174.695312 99.539062 173.117188 C 98.855469 171.539062 97.921875 170.152344 96.742188 168.960938 C 95.5625 167.769531 94.175781 166.824219 92.585938 166.128906 C 90.996094 165.433594 89.292969 165.085938 87.480469 165.085938 Z M 108.355469 178.167969 C 108.355469 183.984375 106.316406 188.902344 102.242188 192.929688 C 98.113281 197.003906 93.195312 199.042969 87.480469 199.042969 C 81.714844 199.042969 76.792969 197.003906 72.71875 192.929688 C 68.640625 188.855469 66.605469 183.933594 66.605469 178.167969 C 66.605469 172.402344 68.640625 167.484375 72.71875 163.40625 C 76.792969 159.332031 81.714844 157.292969 87.480469 157.292969 C 93.195312 157.292969 98.113281 159.332031 102.242188 163.40625 C 104.277344 165.445312 105.800781 167.695312 106.808594 170.152344 C 107.8125 172.613281 108.328125 175.285156 108.355469 178.167969 " fill-opacity="1" fill-rule="nonzero"/><path fill="#ffffff" d="M 135.191406 165.085938 C 133.351562 165.085938 131.636719 165.433594 130.046875 166.128906 C 128.457031 166.824219 127.078125 167.761719 125.910156 168.941406 C 124.742188 170.121094 123.816406 171.507812 123.132812 173.097656 C 122.449219 174.6875 122.109375 176.378906 122.109375 178.167969 C 122.109375 179.957031 122.449219 181.648438 123.132812 183.238281 C 123.816406 184.828125 124.742188 186.214844 125.910156 187.394531 C 127.078125 188.574219 128.457031 189.511719 130.046875 190.207031 C 131.636719 190.902344 133.351562 191.25 135.191406 191.25 C 137.003906 191.25 138.707031 190.902344 140.300781 190.207031 C 141.890625 189.511719 143.273438 188.566406 144.457031 187.375 C 145.636719 186.183594 146.566406 184.796875 147.25 183.21875 C 147.933594 181.640625 148.277344 179.957031 148.277344 178.167969 C 148.277344 176.378906 147.933594 174.695312 147.25 173.117188 C 146.566406 171.539062 145.636719 170.152344 144.457031 168.960938 C 143.273438 167.769531 141.890625 166.824219 140.300781 166.128906 C 138.707031 165.433594 137.003906 165.085938 135.191406 165.085938 Z M 156.066406 178.167969 C 156.066406 183.984375 154.027344 188.902344 149.953125 192.929688 C 145.828125 197.003906 140.90625 199.042969 135.191406 199.042969 C 129.425781 199.042969 124.503906 197.003906 120.433594 192.929688 C 116.355469 188.855469 114.316406 183.933594 114.316406 178.167969 C 114.316406 172.402344 116.355469 167.484375 120.433594 163.40625 C 124.503906 159.332031 129.425781 157.292969 135.191406 157.292969 C 140.90625 157.292969 145.828125 159.332031 149.953125 163.40625 C 151.992188 165.445312 153.511719 167.695312 154.519531 170.152344 C 155.527344 172.613281 156.039062 175.285156 156.066406 178.167969 " fill-opacity="1" fill-rule="nonzero"/><g clip-path="url(#87804ecf1b)"><path fill="#ffffff" d="M 57.210938 139.4375 C 58.328125 139.4375 59.253906 139.816406 59.988281 140.574219 C 60.722656 141.332031 61.089844 142.257812 61.089844 143.351562 C 61.089844 144.472656 60.722656 145.398438 59.988281 146.128906 C 59.253906 146.863281 58.328125 147.230469 57.210938 147.230469 C 54.128906 147.230469 52.589844 148.769531 52.589844 151.851562 L 52.589844 169.667969 C 52.589844 173.246094 51.769531 176.082031 50.128906 178.167969 C 51.769531 180.253906 52.589844 183.089844 52.589844 186.667969 L 52.589844 204.484375 C 52.589844 207.566406 54.128906 209.109375 57.210938 209.109375 C 58.328125 209.109375 59.253906 209.472656 59.988281 210.207031 C 60.722656 210.941406 61.089844 211.863281 61.089844 212.984375 C 61.089844 214.101562 60.722656 215.035156 59.988281 215.78125 C 59.253906 216.523438 58.328125 216.898438 57.210938 216.898438 C 48.9375 216.898438 44.796875 212.761719 44.796875 204.484375 L 44.796875 186.667969 C 44.796875 183.585938 43.269531 182.042969 40.214844 182.042969 C 39.097656 182.042969 38.167969 181.679688 37.4375 180.945312 C 36.703125 180.210938 36.335938 179.285156 36.335938 178.167969 C 36.335938 177.050781 36.703125 176.125 37.4375 175.390625 C 38.167969 174.660156 39.097656 174.292969 40.214844 174.292969 C 43.269531 174.292969 44.796875 172.75 44.796875 169.667969 L 44.796875 151.851562 C 44.796875 143.574219 48.9375 139.4375 57.210938 139.4375 " fill-opacity="1" fill-rule="nonzero"/></g><g clip-path="url(#b685eea0a9)"><path fill="#ffffff" d="M 177.875 151.851562 L 177.875 169.667969 C 177.875 172.75 179.402344 174.292969 182.457031 174.292969 C 183.578125 174.292969 184.5 174.660156 185.234375 175.390625 C 185.96875 176.125 186.335938 177.050781 186.335938 178.167969 C 186.335938 179.285156 185.96875 180.210938 185.234375 180.945312 C 184.5 181.679688 183.578125 182.042969 182.457031 182.042969 C 179.402344 182.042969 177.875 183.585938 177.875 186.667969 L 177.875 204.484375 C 177.875 212.761719 173.734375 216.898438 165.460938 216.898438 C 164.339844 216.898438 163.414062 216.523438 162.683594 215.78125 C 161.949219 215.035156 161.585938 214.101562 161.585938 212.984375 C 161.585938 211.863281 161.949219 210.941406 162.683594 210.207031 C 163.414062 209.472656 164.339844 209.109375 165.460938 209.109375 C 168.542969 209.109375 170.082031 207.566406 170.082031 204.484375 L 170.082031 186.667969 C 170.082031 183.089844 170.902344 180.253906 172.542969 178.167969 C 170.902344 176.082031 170.082031 173.246094 170.082031 169.667969 L 170.082031 151.851562 C 170.082031 148.769531 168.542969 147.230469 165.460938 147.230469 C 164.339844 147.230469 163.414062 146.863281 162.683594 146.128906 C 161.949219 145.398438 161.585938 144.472656 161.585938 143.351562 C 161.585938 142.257812 161.949219 141.332031 162.683594 140.574219 C 163.414062 139.816406 164.339844 139.4375 165.460938 139.4375 C 173.734375 139.4375 177.875 143.574219 177.875 151.851562 " fill-opacity="1" fill-rule="nonzero"/></g><g clip-path="url(#89d7f7c746)"><path fill="#ffffff" d="M 123.003906 142.527344 C 123.003906 143.175781 122.878906 143.777344 122.628906 144.335938 C 122.382812 144.894531 122.054688 145.386719 121.644531 145.808594 C 121.234375 146.230469 120.742188 146.5625 120.171875 146.796875 C 119.597656 147.035156 119.003906 147.152344 118.382812 147.152344 C 117.238281 147.152344 116.257812 146.753906 115.4375 145.957031 C 114.617188 145.164062 113.945312 144.1875 113.421875 143.03125 C 112.902344 141.875 112.523438 140.683594 112.285156 139.453125 C 112.050781 138.222656 111.933594 137.074219 111.933594 136.003906 C 111.933594 131.605469 113.808594 127.160156 117.558594 122.660156 C 118.230469 121.988281 118.988281 121.65625 119.835938 121.65625 C 120.703125 121.65625 121.449219 121.964844 122.070312 122.585938 C 122.691406 123.207031 123.003906 123.953125 123.003906 124.824219 C 123.003906 125.246094 122.914062 125.679688 122.742188 126.128906 C 121.625 128.863281 121.066406 131.457031 121.066406 133.917969 C 121.066406 136.253906 121.574219 138.515625 122.59375 140.703125 C 122.867188 141.324219 123.003906 141.933594 123.003906 142.527344 Z M 110.738281 142.527344 C 110.738281 143.175781 110.613281 143.777344 110.367188 144.335938 C 110.117188 144.894531 109.789062 145.386719 109.378906 145.808594 C 108.96875 146.230469 108.476562 146.5625 107.90625 146.796875 C 107.335938 147.035156 106.738281 147.152344 106.117188 147.152344 C 104.972656 147.152344 103.992188 146.753906 103.171875 145.957031 C 102.351562 145.164062 101.683594 144.1875 101.160156 143.03125 C 100.636719 141.875 100.257812 140.683594 100.023438 139.453125 C 99.785156 138.222656 99.667969 137.074219 99.667969 136.003906 C 99.667969 131.605469 101.542969 127.160156 105.296875 122.660156 C 105.96875 121.988281 106.726562 121.65625 107.570312 121.65625 C 108.441406 121.65625 109.1875 121.964844 109.808594 122.585938 C 110.429688 123.207031 110.738281 123.953125 110.738281 124.824219 C 110.738281 125.246094 110.652344 125.679688 110.480469 126.128906 C 109.359375 128.863281 108.800781 131.457031 108.800781 133.917969 C 108.800781 136.253906 109.308594 138.515625 110.328125 140.703125 C 110.601562 141.324219 110.738281 141.933594 110.738281 142.527344 " fill-opacity="1" fill-rule="nonzero"/></g><g fill="#ffffff" fill-opacity="1"><g transform="translate(190.484582, 206.720626)"><g><path d="M 19.726562 -0.863281 L 12.914062 -19.328125 C 12.636719 -19.972656 12.328125 -20.28125 11.652344 -20.28125 L 8.691406 -20.28125 C 8.015625 -20.28125 7.675781 -19.972656 7.429688 -19.328125 L 0.585938 -0.863281 C 0.429688 -0.492188 0.429688 0 1.109375 0 L 4.347656 0 C 5.023438 0 5.269531 -0.183594 5.519531 -0.925781 L 6.378906 -3.359375 L 13.933594 -3.359375 L 14.796875 -0.925781 C 15.042969 -0.183594 15.289062 0 15.96875 0 L 19.203125 0 C 19.882812 0 19.882812 -0.492188 19.726562 -0.863281 Z M 10.171875 -14.488281 L 12.484375 -7.675781 L 7.859375 -7.675781 Z M 10.171875 -14.488281 "/></g></g></g><g fill="#ffffff" fill-opacity="1"><g transform="translate(210.671924, 206.720626)"><g><path d="M 17.445312 -20.28125 L 14.394531 -20.28125 C 13.839844 -20.28125 13.5 -20.097656 13.5 -19.390625 L 13.5 -6.875 C 13.5 -4.933594 12.207031 -3.824219 10.171875 -3.824219 C 8.136719 -3.824219 6.875 -4.933594 6.875 -6.875 L 6.875 -19.390625 C 6.875 -20.097656 6.535156 -20.28125 5.980469 -20.28125 L 2.929688 -20.28125 C 2.375 -20.28125 2.035156 -20.097656 2.035156 -19.390625 L 2.035156 -6.195312 C 2.035156 -1.355469 6.503906 0.460938 10.171875 0.460938 C 13.839844 0.460938 18.339844 -1.355469 18.339844 -6.195312 L 18.339844 -19.390625 C 18.339844 -20.097656 18 -20.28125 17.445312 -20.28125 Z M 17.445312 -20.28125 "/></g></g></g><g fill="#ffffff" fill-opacity="1"><g transform="translate(231.044192, 206.720626)"><g><path d="M 18.894531 -0.988281 L 14.550781 -7.304688 C 16.460938 -7.953125 18.835938 -10.203125 18.835938 -13.441406 C 18.835938 -15.414062 18.1875 -17.167969 17.046875 -18.277344 C 15.75 -19.574219 14.273438 -20.253906 10.910156 -20.253906 L 3.144531 -20.253906 C 2.433594 -20.253906 2.28125 -19.914062 2.28125 -19.359375 L 2.28125 -0.894531 C 2.28125 -0.183594 2.589844 0 3.144531 0 L 6.195312 0 C 6.75 0 7.089844 -0.183594 7.089844 -0.894531 L 7.089844 -15.9375 L 11.191406 -15.9375 C 12.792969 -15.9375 14.023438 -14.917969 14.023438 -13.316406 C 14.023438 -11.867188 12.609375 -10.820312 11.097656 -10.820312 L 10.480469 -10.820312 C 9.773438 -10.820312 9.585938 -10.480469 9.585938 -9.925781 L 9.585938 -7.460938 C 9.585938 -6.597656 9.648438 -6.257812 9.925781 -5.886719 L 13.253906 -0.925781 C 13.6875 -0.277344 14.054688 0 14.796875 0 L 18.433594 0 C 19.019531 0 19.171875 -0.554688 18.894531 -0.988281 Z M 18.894531 -0.988281 "/></g></g></g><g fill="#ffffff" fill-opacity="1"><g transform="translate(251.570553, 206.720626)"><g><path d="M 17.445312 -20.28125 L 14.394531 -20.28125 C 13.839844 -20.28125 13.5 -20.097656 13.5 -19.390625 L 13.5 -6.875 C 13.5 -4.933594 12.207031 -3.824219 10.171875 -3.824219 C 8.136719 -3.824219 6.875 -4.933594 6.875 -6.875 L 6.875 -19.390625 C 6.875 -20.097656 6.535156 -20.28125 5.980469 -20.28125 L 2.929688 -20.28125 C 2.375 -20.28125 2.035156 -20.097656 2.035156 -19.390625 L 2.035156 -6.195312 C 2.035156 -1.355469 6.503906 0.460938 10.171875 0.460938 C 13.839844 0.460938 18.339844 -1.355469 18.339844 -6.195312 L 18.339844 -19.390625 C 18.339844 -20.097656 18 -20.28125 17.445312 -20.28125 Z M 17.445312 -20.28125 "/></g></g></g><g fill="#ffffff" fill-opacity="1"><g transform="translate(271.942821, 206.720626)"><g><path d="M 11.835938 -11.773438 C 10.605469 -12.269531 6.074219 -12.945312 6.074219 -14.828125 C 6.074219 -16.214844 7.769531 -16.613281 8.785156 -16.613281 C 9.710938 -16.613281 10.820312 -16.335938 11.40625 -15.78125 C 11.773438 -15.414062 11.929688 -15.164062 12.050781 -14.859375 C 12.207031 -14.457031 12.300781 -14.023438 12.886719 -14.023438 L 15.90625 -14.023438 C 16.613281 -14.023438 16.800781 -14.148438 16.800781 -14.886719 C 16.800781 -18.957031 12.515625 -20.746094 8.601562 -20.746094 C 4.746094 -20.589844 1.109375 -18.617188 1.109375 -14.609375 C 1.109375 -10.695312 3.976562 -9.464844 7.089844 -8.476562 C 9.710938 -7.644531 12.453125 -7.613281 12.453125 -5.886719 C 12.453125 -4.160156 11.097656 -3.792969 9.433594 -3.792969 C 8.292969 -3.792969 7.027344 -4.070312 6.410156 -4.808594 C 6.011719 -5.269531 5.855469 -5.671875 5.824219 -6.074219 C 5.765625 -6.84375 5.425781 -6.9375 4.714844 -6.9375 L 1.726562 -6.9375 C 1.015625 -6.9375 0.832031 -6.78125 0.832031 -6.074219 C 0.832031 -1.757812 5.269531 0.460938 9.125 0.460938 C 13.871094 0.460938 17.324219 -1.632812 17.324219 -6.011719 C 17.324219 -10.203125 14.054688 -11.097656 11.835938 -11.773438 Z M 11.835938 -11.773438 "/></g></g></g><g fill="#ffffff" fill-opacity="1"><g transform="translate(290.589148, 206.720626)"><g><path d="M 16 -20.28125 L 1.695312 -20.28125 C 0.988281 -20.28125 0.800781 -19.945312 0.800781 -19.390625 L 0.800781 -16.832031 C 0.800781 -16.277344 0.988281 -15.9375 1.695312 -15.9375 L 6.441406 -15.9375 L 6.441406 -0.894531 C 6.441406 -0.183594 6.78125 0 7.335938 0 L 10.386719 0 C 10.941406 0 11.28125 -0.183594 11.28125 -0.894531 L 11.28125 -15.9375 L 16 -15.9375 C 16.707031 -15.9375 16.890625 -16.277344 16.890625 -16.832031 L 16.890625 -19.390625 C 16.890625 -19.945312 16.707031 -20.28125 16 -20.28125 Z M 16 -20.28125 "/></g></g></g><g fill="#ffffff" fill-opacity="1"><g transform="translate(308.280042, 206.720626)"><g><path d="M 16.984375 -4.316406 L 7.152344 -4.316406 L 7.152344 -8.382812 L 15.414062 -8.382812 C 16.121094 -8.382812 16.304688 -8.722656 16.304688 -9.277344 L 16.304688 -11.683594 C 16.304688 -12.238281 16.121094 -12.578125 15.414062 -12.578125 L 7.152344 -12.578125 L 7.152344 -15.9375 L 16.460938 -15.9375 C 17.167969 -15.9375 17.355469 -16.277344 17.355469 -16.832031 L 17.355469 -19.390625 C 17.355469 -19.945312 17.167969 -20.28125 16.460938 -20.28125 L 3.175781 -20.28125 C 2.464844 -20.28125 2.28125 -19.945312 2.28125 -19.390625 L 2.28125 -0.894531 C 2.28125 -0.339844 2.464844 0 3.175781 0 L 16.984375 0 C 17.695312 0 17.878906 -0.339844 17.878906 -0.894531 L 17.878906 -3.421875 C 17.878906 -3.976562 17.695312 -4.316406 16.984375 -4.316406 Z M 16.984375 -4.316406 "/></g></g></g><g fill="#ffffff" fill-opacity="1"><g transform="translate(327.604408, 206.720626)"><g><path d="M 19.171875 -20.28125 L 15.011719 -20.28125 C 14.304688 -20.28125 14.085938 -20.222656 13.46875 -19.542969 L 7.089844 -12.515625 L 7.089844 -19.390625 C 7.089844 -20.097656 6.75 -20.28125 6.226562 -20.28125 L 3.175781 -20.28125 C 2.589844 -20.28125 2.28125 -20.097656 2.28125 -19.390625 L 2.28125 -0.894531 C 2.28125 -0.183594 2.589844 0 3.175781 0 L 6.226562 0 C 6.75 0 7.089844 -0.183594 7.089844 -0.894531 L 7.089844 -6.378906 L 9 -8.382812 C 10.664062 -5.609375 13.410156 -0.988281 13.410156 -0.988281 C 13.808594 -0.339844 14.210938 0 14.949219 0 L 18.710938 0 C 19.296875 0 19.417969 -0.585938 19.171875 -0.988281 L 12.546875 -11.898438 L 19.480469 -19.417969 C 19.757812 -19.695312 19.757812 -20.28125 19.171875 -20.28125 Z M 19.171875 -20.28125 "/></g></g></g></svg>